<svg width="256" height="29" viewBox="0 0 256 29" fill="none" xmlns="http://www.w3.org/2000/svg">
<path d="M51.3 0.100006L48.5 5.00001H45.8L44.9 6.40001H47.7L41.6 16.8C40.3 19 41.2 21 43.7 21C45.5 21 47.4 19.7 49.3 17.9C49.3 21.7 54.6 22.4 57.9 18.4H58.6C60.4 18.4 63.2 17.3 64.8 15.5C64.6 15.1 64.1 14.6 63.7 14.5L63.5 14.7C62.1 16.2 60.5 16.9 58.9 16.9L61.7 12.1C63.5 9.00001 61.8 6.00001 59 6.00001C56.7 6.00001 54.9 6.90001 53.1 9.90001L51.6 12.5L50.4 14.6L50.2 14.8C48 17.3 45.9 19.3 44.6 19.3C43.9 19.3 43.6 18.8 44.3 17.7L50.8 6.50001H53.3L54 5.00001H51.5L54.3 0.100006H51.3ZM58.8 7.90001C59.8 8.00001 60.2 9.20001 59.2 10.9L57 14.6H56.9C55.9 14.6 55.1 15.4 55.1 16.4C55.1 16.8 55.2 17.1 55.4 17.4V17.5C54 19.9 50.5 19.5 52.3 16.4L54.6 12.5L56.1 10.1C57 8.50001 58.1 7.90001 58.8 7.90001ZM80.8 0.100006L78 5.00001H75.3L74.4 6.40001H77.2L71 16.8C69.7 19 70.6 21 73.1 21C74.3 21 75.6 20.4 77 19.4L76.2 20.7H79.2L83.8 12.8C88.4 7.00001 90.5 7.80001 89.2 10L85.3 16.7C84 18.9 84.9 20.9 87.4 20.9C89.2 20.9 91.2 19.5 93.1 17.7C93.2 19.6 94.8 20.9 97.2 20.9C100.6 20.9 104 18.3 106.5 15.4C106.3 15 105.8 14.5 105.4 14.4L105.2 14.6C103 17.1 100.2 19.1 98.1 19.1C96.2 19.1 95.1 18 96.5 15.5L96.8 15C98.7 15.8 102.4 15.4 104.7 11.6L105.1 10.9C106.7 8.10001 105.2 6.10001 102.7 6.10001C100.3 6.10001 98.3 7.40001 97 9.50001L94.1 14.5L93.9 14.7C91.7 17.2 89.6 19.2 88.3 19.2C87.6 19.2 87.3 18.7 87.9 17.6L92.3 10.1C93.6 7.80001 92.4 6.20001 90.7 6.20001C89.4 6.20001 88 6.90001 86.5 8.50001L91.3 0.200008H88.3L79.9 14.6L79.7 14.8C77.5 17.3 75.4 19.3 74.1 19.3C73.4 19.3 73.1 18.8 73.8 17.7L80.3 6.50001H82.8L83.7 5.10001H81.2L84 0.200008L80.8 0.100006ZM102.1 8.30001C103.1 8.20001 103.6 9.20001 102.6 10.9L102.2 11.6C100.8 14 98.8 14 97.7 13.6L99.6 10.2C100.3 9 101.3 8.40001 102.1 8.30001ZM146.4 2.90001C144.7 4.40001 144.5 6.10001 145.6 7.50001L145.9 7.80001C144.6 9.70001 142.8 12.2 140.8 14.5L140.6 14.7C139.2 16.2 137.6 16.9 136 16.9L138.8 12.1C140.6 9.00001 138.9 6.00001 136.1 6.00001C133.8 6.00001 132 6.90001 130.2 9.90001L128.7 12.5L127.5 14.6L127.3 14.8C124.8 17.6 122.7 19.5 120.3 20.5L127.1 9.10001H125.3C125.3 7.90001 124 6.20001 122.1 6.20001C120.5 6.20001 118.2 7.50001 116.9 9.60001L112.7 16.8C111.4 19 112.3 21 114.8 21C115.6 21 116.7 20.6 117.7 20L116.9 21.4C112.8 22.6 110.3 24.3 110.3 26.5C110.3 29.4 114.7 30 116.9 26.3L119.2 22.4C121.6 21.7 124 20.3 126.4 17.9C126.4 21.7 131.7 22.5 135 18.4H135.7C137.5 18.4 140.3 17.3 141.9 15.5C143.3 13.8 144.5 12.3 146.9 9.10001L147.3 9.60001C147.7 10.1 147.8 10.7 147.5 11.3L144.3 16.8C143 19 143.9 21 146.4 21C147.9 21 149.6 20 151.2 18.6C151.1 20 152.1 21 153.8 21C154.6 21 155.7 20.6 156.7 20L155.9 21.4C151.8 22.6 149.3 24.3 149.3 26.5C149.3 29.4 153.7 30 155.9 26.3L158.2 22.4C160.7 21.6 163.1 20.2 165.6 17.8C165.7 19.7 167.3 21 169.7 21C172.2 21 174.6 19.6 176.7 17.8C176.6 21.7 182 22.5 185.3 18.4H186C186.9 18.4 188.2 18.1 189.4 17.5C188.6 19.6 189.3 21 191.1 21C192.8 21 194.6 19.5 196.1 18.1C195.8 19.7 196.8 21 198.7 21C201.2 21 204.1 18.4 206.6 15.5C208.3 13.5 209.8 11.5 210.9 10.1C209.7 13.2 210.3 18.8 207.5 18.8C206.5 18.8 206.1 17.7 206.1 17.7L204.2 18.7C204.2 18.7 204.8 21.1 207.5 21.1C207.8 21.1 208.1 21.1 208.3 21H208.4C211.5 20.6 214.5 18.2 216.8 15.6C216.6 15.1 216.1 14.7 215.7 14.6L215.5 14.8C214.4 16 213.2 17.1 211.9 18C212.9 15.2 212.7 10.8 214.5 7.00001L212.2 5.80001C211 7.50001 208.2 11.4 205.5 14.5L205.3 14.7C203.1 17.2 201 19.2 199.7 19.2C199 19.2 198.7 18.7 199.4 17.6L205.8 6.40001H202.8L197.4 15.7C195.1 17.8 193.3 18.9 192.8 18.7C192 18.4 192.8 17.3 193.2 16.6L199.1 6.40001H196.1L191.4 14.5L191.2 14.7C189.8 16.2 188.2 16.9 186.6 16.9L189.4 12.1C191.2 9.00001 189.5 6.00001 186.7 6.00001C184.4 6.00001 182.6 6.90001 180.8 9.90001L179.3 12.5L178.1 14.6L177.9 14.8C175.7 17.3 172.9 19.3 170.8 19.3C168.9 19.3 167.8 18.2 169.2 15.7L169.5 15.2C171.4 16 175.1 15.6 177.4 11.8L177.8 11.1C179.4 8.30001 177.9 6.30001 175.4 6.30001C173 6.30001 171 7.6 169.7 9.7L166.8 14.7L166.6 14.9C164.1 17.7 162 19.6 159.6 20.6L166.4 9.2H164.6C164.6 8 163.3 6.30001 161.4 6.30001C159.8 6.30001 157.5 7.6 156.2 9.7L153.3 14.6L153.1 14.8C150.9 17.3 148.8 19.3 147.5 19.3C146.8 19.3 146.5 18.8 147.2 17.7L150.2 12.5C151.2 10.7 150.8 9.60001 149.8 8.50001L148.1 6.50001C147.7 6.00001 147.7 5.40001 148.3 4.80001L146.4 2.90001ZM136.1 7.90001C137.1 8.00001 137.6 9.20001 136.5 10.9L134.3 14.6H134.2C133.2 14.6 132.4 15.4 132.4 16.4C132.4 16.8 132.5 17.1 132.7 17.4V17.5C131.3 19.9 127.8 19.5 129.6 16.4L131.9 12.5L133.4 10.1C134.3 8.50001 135.3 7.90001 136.1 7.90001ZM186.3 7.90001C187.3 8.00001 187.8 9.20001 186.7 10.9L184.5 14.6H184.4C183.4 14.6 182.6 15.4 182.6 16.4C182.6 16.8 182.7 17.1 182.9 17.4V17.5C181.5 19.9 178 19.5 179.8 16.4L182.1 12.5L183.6 10.1C184.4 8.50001 185.5 7.90001 186.3 7.90001ZM174.6 8.30001C175.6 8.20001 176.1 9.20001 175.1 10.9L174.7 11.6C173.2 14 171.3 14 170.2 13.6L172.1 10.2C172.8 9 173.8 8.40001 174.6 8.30001ZM122.2 8.50001C123.2 8.50001 123.9 9.40001 123 10.9L120.7 14.9C118.9 17.8 117 19.2 115.8 19.2C115.1 19.2 114.8 18.7 115.5 17.6L119.7 10.3C120.4 9.10001 121.4 8.50001 122.2 8.50001ZM161.1 8.50001C162.1 8.50001 162.8 9.40001 161.9 10.9L159.6 14.9C157.8 17.8 155.9 19.2 154.7 19.2C154 19.2 153.7 18.7 154.4 17.6L158.6 10.3C159.3 9.10001 160.3 8.50001 161.1 8.50001ZM115.8 23.4L114.4 25.8C113.8 26.9 112.7 26.7 112.7 25.9C112.7 25.2 113.5 24.3 115.8 23.4ZM154.7 23.4L153.3 25.8C152.7 26.9 151.6 26.7 151.6 25.9C151.7 25.2 152.4 24.3 154.7 23.4ZM0 11.8H28.9V13.7H0V11.8ZM227.1 11.8H256V13.7H227.1V11.8Z" fill="#766458"/>
</svg>
